<svg width="82" height="81" xmlns="http://www.w3.org/2000/svg"><g fill="none" fill-rule="evenodd"><circle fill="#08F" cx="40.807" cy="40.578" r="40.296"/><path d="M26.973 26h26.524c2.747 0 4.974 2.282 4.974 5.098 0 1.877-1.485 3.399-3.316 3.399h-4.973c-2.747 0-4.973 2.282-4.973 5.098v3.398c0 2.816 2.226 5.099 4.973 5.099h4.973c1.831 0 3.316 1.521 3.316 3.398 0 2.816-2.227 5.098-4.974 5.098H26.973c-2.746 0-4.973-2.282-4.973-5.098V31.098C22 28.282 24.227 26 26.973 26zM62 40.118v3.53c0 1.948-1.522 3.528-3.399 3.528h-8.496c-1.877 0-3.4-1.58-3.4-3.529v-3.53c0-1.949 1.523-3.529 3.4-3.529H58.6c1.877 0 3.399 1.58 3.399 3.53zm-1.176 1.764a1.765 1.765 0 1 0-3.53 0 1.765 1.765 0 0 0 3.53 0z" fill="#FFF"/></g></svg>